<?xml version="1.0" encoding="utf-8"?>
<!-- Generator: Adobe Illustrator 25.3.0, SVG Export Plug-In . SVG Version: 6.00 Build 0)  -->
<svg version="1.1" id="Grupo_1_copia_2" xmlns="http://www.w3.org/2000/svg" xmlns:xlink="http://www.w3.org/1999/xlink" x="0px"
	 y="0px" viewBox="0 0 4136.7 1536.3" style="enable-background:new 0 0 4136.7 1536.3;" xml:space="preserve">
<style type="text/css">
	.st0{fill-rule:evenodd;clip-rule:evenodd;fill:#FCD9DA;}
</style>
<path id="Merenda" class="st0" d="M4044.8,862.3c-19.1,11.6-40.5,19.1-62.7,21.8c-18.5,2.2-37.2,0.6-55.1-4.7
	c-33.8-9.9-62.6-32.4-82-63.8c-19.5,25.6-42.1,47.6-67,64.8c-31.4,21.8-64.4,34.7-97.1,38.4c-50.9,6.1-101.8-11.6-138.1-47.9
	c-17.5,23.7-37.8,42.7-60.1,56.1c-19.1,11.6-40.5,19.1-62.7,21.8c-18.5,2.2-37.2,0.6-55.1-4.7c-34.5-10.1-63.7-33.3-83.1-65.7
	c-19.6,25.8-42.3,48-67.3,65.3c-31.4,21.8-64.4,34.7-97,38.4c-51,6.1-101.9-11.6-138.1-47.9c-17.8,24.4-38.4,43.9-61.2,57.6
	c-19.2,11.7-40.7,19.2-63,21.9c-18.5,2.2-37.2,0.6-55-4.6c-37.3-10.9-68.5-37.3-87.7-74.2s-25.5-82.6-18.1-131.9l0.5-2.8
	c3.7-21.2,7.9-42.3,12-62.2c6.3-30.9,8-58.7,5.1-82.7c-3.2-26.2-17.2-48-37.5-58.4c-18-9.1-38.6-8.3-58.1,2.5
	c-41.9,23.2-77.8,67.7-98.9,122.7l-57.5,332.7l-70.7-12.2c-31.3,19.7-67.4,32.3-106.7,36.8c-34.9,4-72.2,1.7-110.7-7.5
	c-44.2-10.6-80.6-26.3-109.9-47.8c-20.2,32.1-44.9,57.3-72.9,74.1c-20.5,12.3-42.2,19.7-64.1,22.2c-18.7,2.2-37.6,0.6-55.6-4.7
	c-64.4-18.9-121.8-89.1-104.6-203.2l0.2-1l3.8-21.7l32.7-189.2c-1.3-0.3-2.7-0.5-4-0.5l-85.3-0.3c-16.7,167.6-29.9,251.3-70.7,344
	l-0.5-0.2c-38.1,75.4-108,121.8-192,131.4c-34.9,4-72.2,1.7-110.7-7.5c-106.6-25.4-167.8-80.9-192.6-174.7
	c-19.4-73.3-15.1-218.3,79.3-295.3c47.9-39.1,107.8-56.2,164.5-47c44.3,7.2,80.5,29.8,101.9,63.6c20.5,32.3,25.7,72.8,14.7,113.9
	c-10.6,39.4-35.4,74.8-69.8,99.7c-41.4,29.9-112.3,74.7-184.5,91.5c18.7,27.7,49.9,49.1,107,62.7c45.8,10.9,89.1,9.1,125.4-5.3
	c37-14.7,64.5-41.5,81.7-79.8l0,0c32.8-79.1,44.4-156.2,62.6-345.3l3.9-40l165.5,0.6c29.4,0.1,56.2,12,73.5,32.7
	c15.7,18.7,21.9,42.4,17.7,66.9l-33.6,193.2l-3.7,21.2c-6.5,44.3,4,93.8,42.4,105.1c30.8,9,75.3-11.8,106.4-78.3
	c-9.2-17.7-16.4-36.4-21.4-55.7c-19.4-73.3-15.1-218.3,79.3-295.3c47.9-39.1,107.8-56.2,164.5-47c44.3,7.2,80.5,29.8,101.9,63.6
	c20.5,32.3,25.7,72.8,14.7,113.9c-10.6,39.4-35.4,74.8-69.8,99.7c-41.4,29.9-112.3,74.7-184.5,91.5c18.7,27.7,50,49.1,107,62.7
	c45.8,10.9,89.1,9.1,125.4-5.3c34.6-13.8,60.9-38.1,78.2-72.5l64.9-375.2l77,13.3c11.3-9.1,23.3-17.1,36-24.1
	c45.3-25,96.6-26.4,140.8-3.8c46.4,23.8,78.1,71,84.8,126.2c4.1,33.4,2,70.7-6.3,110.9c-3.9,19.2-8,39.5-11.5,59.6l-0.2,1.3
	c-9.3,63,15.1,99.7,43.6,108c29.9,8.8,73.3-11.8,103.6-77.2c-0.9-2.7-1.7-5.5-2.5-8.3c-16.8-61-12.6-131.6,11.9-199
	S3004.5,516,3056.6,480c56.6-39.2,118.4-49.7,173.9-29.5c26.8,9.8,50.8,26.3,69.5,47.9L3386,0l86.8,15l-120.2,694.9l-0.1,0.9
	l-6.9,40c-9.4,63.4,15.4,100.3,44.1,108.7c40.7,12,80.2-28.5,102.5-75.2c-0.9-2.9-1.8-5.8-2.6-8.7c-16.8-61-12.6-131.7,11.9-199
	S3568,452.5,3620,416.5c56.6-39.2,118.4-49.7,173.9-29.5l0,0c26.2,9.5,49.6,25.4,68.1,46.3l10.7-61.8l86.8,15l-43.1,249.3l-2.1,12.5
	h-0.1l-5.4,30.9l-1.2,7.1c-9.4,63.4,15.4,100.3,44.1,108.7c42,12.3,82.8-31.2,104.6-79.8l80.4,36
	C4114.2,801.4,4082.5,839.8,4044.8,862.3z M1384.6,856.2c18.1-13,31-31.2,36.3-51.1c3.2-12,5.2-29.5-4-43.9
	c-7.6-12-22.8-20.7-41.6-23.7c-31.4-5.1-66.8,5.5-94.7,28.2c-32.7,26.7-46.2,68.5-51.8,98.8c-4.2,23.2-5.5,46.8-3.7,70.3
	C1269.3,926,1326.2,898.3,1384.6,856.2z M2218.1,760.5c18.1-13,31-31.2,36.3-51.1c3.2-12,5.2-29.5-4-43.9
	c-7.6-12-22.8-20.7-41.6-23.7c-31.4-5.1-66.8,5.5-94.7,28.3c-32.7,26.7-46.3,68.5-51.9,98.8c-4.2,23.2-5.5,46.8-3.7,70.3
	C2102.9,830.4,2159.8,802.6,2218.1,760.5L2218.1,760.5z M3200.4,533c-11.8-4.2-24.4-5.6-36.8-4c-54.7,6.3-114.3,62.4-142.8,141
	c-18.2,50.3-21.7,101.9-9.7,145.5c10.5,38.1,31.7,64.7,59.6,74.9c27.9,10.2,61.2,3.3,93.7-19.2c37.2-25.7,67.7-67.6,85.9-117.8
	C3285.5,656.5,3262.6,555.6,3200.4,533z M3763.9,469.8c-5.8-2.1-11.9-3.5-18-4.2c-6.2-0.7-12.6-0.6-18.8,0.1
	c-54.7,6.3-114.3,62.4-142.8,141c-35.2,96.9-12.3,197.8,49.9,220.3s144.5-40.1,179.6-137c3.5-9.6,6.4-19.4,8.9-29.4
	c2.2-9.1,4-18.2,5.2-27.5c0.1-1,0.3-1.9,0.4-2.9c0.2-1.8,0.4-3.6,0.6-5.5C3836.7,551.7,3812.1,487.3,3763.9,469.8L3763.9,469.8z
	 M1060.8,1271.1L1060.8,1271.1c29.5,39.4,72.2,61.6,130.3,67.9l-9.5,87.6c-82.7-9-147.1-43.6-191.5-102.9
	c-91-121.6-60.3-303.2-58.5-313.2l94.7-550.8c-5.8,11-11.6,22-17.5,33.2c-114,215.4-243,459.6-260.8,665.4l-43.9-3.8l-43.9-3.6
	c15-184.4,2-373-36.5-536.6c-6.5,57.8-15.7,113.1-24,156.6c-39,206.4-105.1,417.2-176.8,563.9c-6.8,14-20.8,41.4-28.1,55.5
	c-34.2,66.4-90.3,116-153.9,136.3c-12.6,4-25.6,6.8-38.8,8.4c-36,4.1-71.4-2-102.4-18c-82.8-42.9-119.5-148.3-89.4-256.2
	c15.2-54.2,53.2-98.1,104.4-120.2l35,80.9c-26.7,11.5-46.5,34.5-54.5,63c-18.8,67.3-0.2,130.8,45.1,154.3
	c27.1,14.1,55.1,9.9,73.9,3.9c40.9-13,79.1-47.7,102.3-92.7c7.1-13.7,20.7-40.5,27.2-53.8c68.4-140,131.8-342.4,169.4-541.6
	c43.6-230.8,34.3-358.4,13-397.6h0.1c-17-27.5-34.7-48.6-52.3-59.4c-37.5-22.9-83.5-23.5-120.1-1.6c-1.2,0.7-2.5,1.5-3.7,2.3
	c-50.3,32.1-74,88.8-51.7,123.8c17.7,27.8,62.4,35.9,106.3,19.3l31.2,82.4c-84,31.8-171.1,9.5-211.7-54.3
	c-24.4-38.3-28.8-87.3-12.2-134.5c15.6-44.1,47.8-83.5,90.8-110.9c1.9-1.2,3.8-2.4,5.7-3.5c64.8-38.9,145.8-38.1,211.4,2
	c68.5,41.9,133.5,161.2,178.3,327.4c23.4,86.9,39.7,181.5,48.5,279.5c52.3-128.4,120.4-257.4,184-377.7
	c73.8-139.6,143.5-271.5,157.2-351.5l86.8,14.9l-156.6,910.7C1017.9,1027.3,992,1179.7,1060.8,1271.1L1060.8,1271.1z"/>
</svg>
